<?xml version="1.0" encoding="UTF-8"?>
<svg id="Layer_1" data-name="Layer 1" xmlns="http://www.w3.org/2000/svg" viewBox="0 0 32 32">
  <defs>
    <style>
      .cls-1 {
        fill: #2a3439;
      }

      .cls-2 {
        fill: #fff;
      }
    </style>
  </defs>
  <path class="cls-2" d="M17.68,24.31h-3.33s.87,1.18,1.36,1.86l-1.84,4.63c.7.1,1.42.15,2.13.15s1.45-.05,2.16-.16l-1.86-4.63c.49-.69,1.39-1.86,1.39-1.86Z"/>
  <path class="cls-2" d="M15.99,23.52h1.73c.31,0,.6-.14.8-.37l.48-.57c.39-.47.62-1.05.65-1.66l.02-.44c.02-.38.16-.75.41-1.03,1.27-1.41,1.18-3.96,1.15-3.94.16.11.46.19.76.25.76.14,1.55.03,2.25-.31,1.02-.49,1.44-1.03,1.57-1.24.03-.05.01-.12-.04-.14-1.26-.55-4.54-.63-4.54-.63,0,0,.03-.5,0-.49,2.02-.08,3.96-.31,4.94-1.98,1.21-3.21-1.28-4.91-2.21-5.42-.11-.06-.23.05-.17.17,2.45,5.24-3.1,4.77-3.1,4.77l-.58-.3c-.67-.35-1.4-.53-2.15-.53h-3.91c-.75,0-1.49.18-2.15.53l-.58.3s-5.55.47-3.1-4.77c.05-.11-.07-.22-.17-.17-.93.51-3.42,2.21-2.21,5.42.98,1.67,2.91,1.9,4.94,1.98-.03-.02,0,.49,0,.49,0,0-3.28.08-4.54.63-.06.02-.08.09-.04.14.14.21.56.75,1.57,1.24.7.34,1.49.45,2.25.31.31-.06.6-.14.76-.25-.03-.02-.12,2.54,1.15,3.94.26.28.4.65.41,1.03l.02.44c.03.61.26,1.19.65,1.66l.48.57c.2.24.49.37.8.37h1.7Z"/>
  <path class="cls-1" d="M16,.5C7.44.5.5,7.44.5,16c0,7.77,5.71,14.2,13.16,15.33.76.11,1.54.17,2.34.17s1.59-.06,2.37-.18c7.44-1.14,13.13-7.56,13.13-15.32C31.5,7.44,24.56.5,16,.5ZM13.48,23.15l-.48-.57c-.39-.47-.62-1.05-.65-1.66l-.02-.44c-.02-.38-.16-.75-.41-1.03-1.27-1.41-1.18-3.96-1.15-3.94-.16.11-.46.19-.76.25-.76.14-1.55.03-2.25-.31-1.02-.49-1.44-1.03-1.57-1.24-.03-.05-.01-.12.04-.14,1.26-.55,4.54-.63,4.54-.63,0,0-.03-.5,0-.49-2.02-.08-3.96-.31-4.94-1.98-1.21-3.21,1.28-4.91,2.21-5.42.11-.06.23.05.17.17-2.45,5.24,3.1,4.77,3.1,4.77l.58-.3c.67-.35,1.4-.53,2.15-.53h3.91c.75,0,1.49.18,2.15.53l.58.3s5.55.47,3.1-4.77c-.05-.11.07-.22.17-.17.93.51,3.42,2.21,2.21,5.42-.98,1.67-2.91,1.9-4.94,1.98.03-.02,0,.49,0,.49,0,0,3.28.08,4.54.63.06.02.08.09.04.14-.14.21-.56.75-1.57,1.24-.7.34-1.49.45-2.25.31-.31-.06-.6-.14-.76-.25.03-.02.12,2.54-1.15,3.94-.26.28-.4.65-.41,1.03l-.02.44c-.03.61-.26,1.19-.65,1.66l-.48.57c-.2.24-.49.37-.8.37h-3.44c-.31,0-.6-.14-.8-.37ZM16,30.96c-.71,0-1.43-.05-2.13-.15l1.84-4.63c-.49-.69-1.36-1.86-1.36-1.86h3.33s-.9,1.18-1.39,1.86l1.86,4.63c-.71.1-1.44.16-2.16.16Z"/>
</svg>