<?xml version="1.0" encoding="UTF-8"?>
<svg id="Layer_1" data-name="Layer 1" xmlns="http://www.w3.org/2000/svg" viewBox="0 0 64 64">
  <defs>
    <style>
      .cls-1 {
        fill: #fff;
      }

      .cls-2 {
        fill: #f46b27;
      }
    </style>
  </defs>
  <path class="cls-1" d="M35.45,49.07h-6.84s1.78,2.41,2.79,3.82l-3.78,9.52c1.45.21,2.92.31,4.38.31s2.97-.11,4.43-.32l-3.83-9.51c1.01-1.41,2.85-3.82,2.85-3.82Z"/>
  <path class="cls-1" d="M31.97,47.44h3.56c.64,0,1.24-.28,1.65-.76l.99-1.17c.81-.96,1.28-2.15,1.34-3.4l.04-.9c.04-.78.32-1.54.85-2.12,2.61-2.89,2.43-8.13,2.37-8.09.34.23.94.4,1.57.51,1.57.29,3.19.06,4.62-.63,2.09-1.01,2.95-2.11,3.23-2.54.07-.1.02-.24-.09-.29-2.59-1.12-9.33-1.29-9.33-1.29,0,0,.07-1.03,0-1,4.16-.16,8.12-.64,10.13-4.06,2.47-6.6-2.62-10.09-4.54-11.13-.22-.12-.47.11-.36.34,5.03,10.75-6.37,9.79-6.37,9.79l-1.19-.62c-1.37-.71-2.88-1.09-4.42-1.09h-8.03c-1.54,0-3.06.37-4.42,1.09l-1.19.62s-11.4.97-6.37-9.79c.11-.23-.14-.46-.36-.34-1.92,1.04-7.02,4.53-4.54,11.13,2.01,3.42,5.98,3.9,10.13,4.06-.07-.04,0,1,0,1,0,0-6.74.16-9.33,1.29-.11.05-.16.19-.09.29.28.44,1.14,1.53,3.23,2.54,1.43.69,3.05.91,4.62.63.63-.12,1.23-.28,1.57-.51-.06-.03-.24,5.21,2.37,8.09.52.58.81,1.34.85,2.12l.04.9c.06,1.25.53,2.45,1.34,3.4l.99,1.17c.41.49,1.02.76,1.65.76h3.5Z"/>
  <path class="cls-2" d="M32,.17C14.42.17.17,14.42.17,32c0,15.95,11.73,29.15,27.02,31.47,1.57.24,3.17.36,4.8.36s3.27-.13,4.86-.37c15.27-2.34,26.97-15.53,26.97-31.46C63.83,14.42,49.58.17,32,.17ZM26.82,46.68l-.99-1.17c-.81-.96-1.28-2.15-1.34-3.4l-.04-.9c-.04-.78-.32-1.54-.85-2.12-2.61-2.89-2.43-8.13-2.37-8.09-.34.23-.94.4-1.57.51-1.56.29-3.18.06-4.62-.63-2.09-1.01-2.95-2.11-3.23-2.54-.07-.1-.02-.24.09-.29,2.59-1.12,9.33-1.29,9.33-1.29,0,0-.07-1.03,0-1-4.16-.16-8.12-.64-10.13-4.06-2.47-6.6,2.62-10.09,4.54-11.13.22-.12.47.11.36.34-5.03,10.75,6.37,9.79,6.37,9.79l1.19-.62c1.37-.71,2.88-1.09,4.42-1.09h8.03c1.54,0,3.06.37,4.42,1.09l1.19.62s11.4.97,6.37-9.79c-.11-.23.14-.46.36-.34,1.92,1.04,7.02,4.53,4.54,11.13-2.01,3.42-5.98,3.9-10.13,4.06.07-.04,0,1,0,1,0,0,6.74.16,9.33,1.29.11.05.16.19.09.29-.28.44-1.14,1.53-3.23,2.54-1.43.69-3.05.91-4.62.63-.63-.12-1.23-.28-1.57-.51.06-.03.24,5.21-2.37,8.09-.52.58-.81,1.34-.85,2.12l-.04.9c-.06,1.25-.53,2.45-1.34,3.4l-.99,1.17c-.41.49-1.02.76-1.65.76h-7.06c-.64,0-1.24-.28-1.65-.76ZM32,62.72c-1.46,0-2.94-.11-4.38-.31l3.78-9.52c-1.01-1.41-2.79-3.82-2.79-3.82h6.84s-1.84,2.41-2.85,3.82l3.83,9.51c-1.46.21-2.95.32-4.43.32Z"/>
</svg>